g Magic Ring VFX Shell
v 5 0 0
v 5.5 1 0
v 4.567727 0 2.033683
v 5.0245 1 2.237052
v 3.345653 0 3.715724
v 3.680218 1 4.087297
v 1.545085 0 4.755283
v 1.699593 1 5.230811
v -0.5226431 0 4.97261
v -0.5749075 1 5.46987
v -2.5 0 4.330127
v -2.75 1 4.76314
v -4.045085 0 2.938926
v -4.449594 1 3.232819
v -4.890738 0 1.039558
v -5.379812 1 1.143514
v -4.890738 0 -1.03956
v -5.379811 1 -1.143516
v -4.045084 0 -2.938928
v -4.449592 1 -3.232821
v -2.5 0 -4.330127
v -2.75 1 -4.76314
v -0.5226417 0 -4.97261
v -0.5749059 1 -5.469871
v 1.545086 0 -4.755282
v 1.699594 1 -5.230811
v 3.345654 0 -3.715724
v 3.680219 1 -4.087296
v 4.567728 0 -2.033682
v 5.0245 1 -2.237051
v 5 0 8.742278E-07
v 5.5 1 9.616506E-07

vn 0.8786883 -0.4393443 0.1867711
vn 0.8786884 -0.4393442 0.1867712
vn 0.7878704 -0.4461996 0.4244599
vn 0.8397839 -0.4464265 0.3089765
vn 0.547112 -0.4461995 0.7082192
vn 0.6415086 -0.4464265 0.6238349
vn 0.2117529 -0.4461994 0.8695211
vn 0.3323107 -0.4464264 0.8308267
vn -0.1602201 -0.4461994 0.8804747
vn -0.03434671 -0.4464263 0.894161
vn -0.5044896 -0.4461996 0.7391862
vn -0.3950653 -0.4464265 0.8028865
vn -0.7615284 -0.4461994 0.4700858
vn -0.6874735 -0.4464265 0.5727859
vn -0.8868919 -0.4461994 0.1197031
vn -0.8610113 -0.4464264 0.2436451
vn -0.8589038 -0.4461994 -0.2513772
vn -0.8856724 -0.4464264 -0.1276239
vn -0.6824033 -0.4461993 -0.5789921
vn -0.7571927 -0.4464263 -0.4768257
vn -0.3879091 -0.4461994 -0.806494
vn -0.4977875 -0.4464263 -0.74358
vn -0.02634203 -0.4461995 -0.8945457
vn -0.1523104 -0.4464264 -0.8817624
vn 0.3397799 -0.4461994 -0.8279225
vn 0.2195027 -0.4464265 -0.8674803
vn 0.6471508 -0.4461995 -0.6181439
vn 0.5533617 -0.4464264 -0.703203
vn 0.8426234 -0.4461994 -0.3014825
vn 0.7915395 -0.4464265 -0.4173352
vn 0.8786884 -0.4393442 -0.186771
vn 0.8786883 -0.4393442 -0.1867709

vt 0 0
vt 0 1
vt 0.06666667 0
vt 0.06666667 1
vt 0.1333333 0
vt 0.1333333 1
vt 0.2 0
vt 0.2 1
vt 0.2666667 0
vt 0.2666667 1
vt 0.3333333 0
vt 0.3333333 1
vt 0.4 0
vt 0.4 1
vt 0.4666667 0
vt 0.4666667 1
vt 0.5333334 0
vt 0.5333334 1
vt 0.6 0
vt 0.6 1
vt 0.6666667 0
vt 0.6666667 1
vt 0.7333333 0
vt 0.7333333 1
vt 0.8 0
vt 0.8 1
vt 0.8666667 0
vt 0.8666667 1
vt 0.9333333 0
vt 0.9333333 1
vt 1 0
vt 1 1

usemtl Default-Material (Instance)
usemap Default-Material (Instance)
f 1/1/1 2/2/2 4/4/4
f 3/3/3 1/1/1 4/4/4
f 3/3/3 4/4/4 6/6/6
f 5/5/5 3/3/3 6/6/6
f 5/5/5 6/6/6 8/8/8
f 7/7/7 5/5/5 8/8/8
f 7/7/7 8/8/8 10/10/10
f 9/9/9 7/7/7 10/10/10
f 9/9/9 10/10/10 12/12/12
f 11/11/11 9/9/9 12/12/12
f 11/11/11 12/12/12 14/14/14
f 13/13/13 11/11/11 14/14/14
f 13/13/13 14/14/14 16/16/16
f 15/15/15 13/13/13 16/16/16
f 15/15/15 16/16/16 18/18/18
f 17/17/17 15/15/15 18/18/18
f 17/17/17 18/18/18 20/20/20
f 19/19/19 17/17/17 20/20/20
f 19/19/19 20/20/20 22/22/22
f 21/21/21 19/19/19 22/22/22
f 21/21/21 22/22/22 24/24/24
f 23/23/23 21/21/21 24/24/24
f 23/23/23 24/24/24 26/26/26
f 25/25/25 23/23/23 26/26/26
f 25/25/25 26/26/26 28/28/28
f 27/27/27 25/25/25 28/28/28
f 27/27/27 28/28/28 30/30/30
f 29/29/29 27/27/27 30/30/30
f 29/29/29 30/30/30 32/32/32
f 31/31/31 29/29/29 32/32/32
f 31/31/31 32/32/32 2/2/2
f 1/1/1 31/31/31 2/2/2
